<svg width="32" height="32" viewBox="0 0 32 32" fill="none" xmlns="http://www.w3.org/2000/svg">
<path d="M6.66666 22.6667H5.33333C4.62609 22.6667 3.94781 22.3857 3.44771 21.8856C2.94762 21.3855 2.66666 20.7072 2.66666 20V6.66667C2.66666 5.95942 2.94762 5.28115 3.44771 4.78105C3.94781 4.28095 4.62609 4 5.33333 4H26.6667C27.3739 4 28.0522 4.28095 28.5523 4.78105C29.0524 5.28115 29.3333 5.95942 29.3333 6.66667V20C29.3333 20.7072 29.0524 21.3855 28.5523 21.8856C28.0522 22.3857 27.3739 22.6667 26.6667 22.6667H25.3333M16 20L22.6667 28H9.33333L16 20Z" stroke="#090A0A" stroke-width="1.5" stroke-linecap="round" stroke-linejoin="round"/>
</svg>
