<svg width="32" height="32" viewBox="0 0 32 32" fill="none" xmlns="http://www.w3.org/2000/svg">
<path d="M16 10.6667C18.2092 10.6667 20 8.87581 20 6.66667C20 4.45753 18.2092 2.66667 16 2.66667C13.7909 2.66667 12 4.45753 12 6.66667C12 8.87581 13.7909 10.6667 16 10.6667ZM16 10.6667V29.3333M16 29.3333C12.4638 29.3333 9.07242 27.9286 6.57193 25.4281C4.07144 22.9276 2.66669 19.5362 2.66669 16H6.66669M16 29.3333C19.5362 29.3333 22.9276 27.9286 25.4281 25.4281C27.9286 22.9276 29.3334 19.5362 29.3334 16H25.3334" stroke="#090A0A" stroke-width="1.5" stroke-linecap="round" stroke-linejoin="round"/>
</svg>
