<svg width="114" height="113" viewBox="0 0 114 113" fill="none" xmlns="http://www.w3.org/2000/svg">
<rect x="0.5" width="113" height="113" rx="13.1534" fill="#E8EAFF"/>
<g filter="url(#filter0_d_132_4192)">
<path d="M81.4469 60.0313V85.8366C81.4469 90.3372 77.7984 93.9857 73.2978 93.9857H27.6632C23.1626 93.9857 19.5142 90.3372 19.5142 85.8366V40.202C19.5142 35.7014 23.1626 32.053 27.6632 32.053H46.6776" stroke="url(#paint0_linear_132_4192)" stroke-width="9.77884" stroke-linecap="round"/>
</g>
<g filter="url(#filter1_d_132_4192)">
<path d="M42.4192 68.556L45.3739 56.3111C45.4464 56.0108 45.6006 55.7365 45.8194 55.5184L80.8015 20.6654C82.7179 19.0096 87.6184 16.6914 91.8893 20.6654C96.1602 24.6394 94.2164 29.4965 92.7106 31.4283L56.9171 67.5093C56.6921 67.7361 56.4069 67.8938 56.0952 67.9636L44.4111 70.5809C43.2022 70.8517 42.1286 69.7603 42.4192 68.556Z" fill="url(#paint1_linear_132_4192)"/>
</g>
<defs>
<filter id="filter0_d_132_4192" x="10.6248" y="27.1636" width="79.7114" height="79.7114" filterUnits="userSpaceOnUse" color-interpolation-filters="sRGB">
<feFlood flood-opacity="0" result="BackgroundImageFix"/>
<feColorMatrix in="SourceAlpha" type="matrix" values="0 0 0 0 0 0 0 0 0 0 0 0 0 0 0 0 0 0 127 0" result="hardAlpha"/>
<feOffset dy="4"/>
<feGaussianBlur stdDeviation="2"/>
<feComposite in2="hardAlpha" operator="out"/>
<feColorMatrix type="matrix" values="0 0 0 0 0 0 0 0 0 0 0 0 0 0 0 0 0 0 0.1 0"/>
<feBlend mode="normal" in2="BackgroundImageFix" result="effect1_dropShadow_132_4192"/>
<feBlend mode="normal" in="SourceGraphic" in2="effect1_dropShadow_132_4192" result="shape"/>
</filter>
<filter id="filter1_d_132_4192" x="38.3711" y="18.4712" width="60.1147" height="60.1514" filterUnits="userSpaceOnUse" color-interpolation-filters="sRGB">
<feFlood flood-opacity="0" result="BackgroundImageFix"/>
<feColorMatrix in="SourceAlpha" type="matrix" values="0 0 0 0 0 0 0 0 0 0 0 0 0 0 0 0 0 0 127 0" result="hardAlpha"/>
<feOffset dy="4"/>
<feGaussianBlur stdDeviation="2"/>
<feComposite in2="hardAlpha" operator="out"/>
<feColorMatrix type="matrix" values="0 0 0 0 0 0 0 0 0 0 0 0 0 0 0 0 0 0 0.1 0"/>
<feBlend mode="normal" in2="BackgroundImageFix" result="effect1_dropShadow_132_4192"/>
<feBlend mode="normal" in="SourceGraphic" in2="effect1_dropShadow_132_4192" result="shape"/>
</filter>
<linearGradient id="paint0_linear_132_4192" x1="14.0815" y1="49.9809" x2="89.5959" y2="74.6996" gradientUnits="userSpaceOnUse">
<stop stop-color="#714487"/>
<stop offset="1" stop-color="#5E5DB6"/>
</linearGradient>
<linearGradient id="paint1_linear_132_4192" x1="75.4715" y1="15.7548" x2="55.0989" y2="73.3414" gradientUnits="userSpaceOnUse">
<stop stop-color="#6159AF"/>
<stop offset="0.491503" stop-color="#9C68C4"/>
<stop offset="1" stop-color="#ECA2AE"/>
</linearGradient>
</defs>
</svg>
