<svg width="21" height="21" viewBox="0 0 21 21" fill="none" xmlns="http://www.w3.org/2000/svg">
<path d="M11.6925 1.67041H5.01115C4.56815 1.67041 4.1433 1.84639 3.83005 2.15964C3.5168 2.47289 3.34082 2.89774 3.34082 3.34074V16.7034C3.34082 17.1464 3.5168 17.5712 3.83005 17.8845C4.1433 18.1977 4.56815 18.3737 5.01115 18.3737H15.0331C15.4761 18.3737 15.901 18.1977 16.2142 17.8845C16.5275 17.5712 16.7035 17.1464 16.7035 16.7034V6.6814M11.6925 1.67041L16.7035 6.6814M11.6925 1.67041V6.6814H16.7035M13.3628 10.8572H6.68148M13.3628 14.1979H6.68148M8.35181 7.51656H6.68148" stroke="#090A0A" stroke-width="1.25275" stroke-linecap="round" stroke-linejoin="round"/>
</svg>
