<svg width="17" height="16" viewBox="0 0 17 16" fill="none" xmlns="http://www.w3.org/2000/svg">
<path d="M11.1666 14V3.33333C11.1666 2.97971 11.0261 2.64057 10.7761 2.39052C10.526 2.14048 10.1869 2 9.83325 2H7.16659C6.81296 2 6.47383 2.14048 6.22378 2.39052C5.97373 2.64057 5.83325 2.97971 5.83325 3.33333V14M3.16659 4.66667H13.8333C14.5696 4.66667 15.1666 5.26362 15.1666 6V12.6667C15.1666 13.403 14.5696 14 13.8333 14H3.16659C2.43021 14 1.83325 13.403 1.83325 12.6667V6C1.83325 5.26362 2.43021 4.66667 3.16659 4.66667Z" stroke="#090A0A" stroke-width="1.5" stroke-linecap="round" stroke-linejoin="round"/>
</svg>
