<svg width="51" height="51" viewBox="0 0 51 51" fill="none" xmlns="http://www.w3.org/2000/svg">
<path d="M42.2433 12.9674H35.9188V8.75105C35.9188 6.42575 34.0278 4.53473 31.7025 4.53473H19.0535C16.7282 4.53473 14.8372 6.42575 14.8372 8.75105V12.9674H8.51275C6.18745 12.9674 4.29643 14.8584 4.29643 17.1837V40.3734C4.29643 42.6987 6.18745 44.5897 8.51275 44.5897H42.2433C44.5686 44.5897 46.4596 42.6987 46.4596 40.3734V17.1837C46.4596 14.8584 44.5686 12.9674 42.2433 12.9674ZM12.7291 17.1837H16.9454V40.3734H12.7291V17.1837ZM38.027 40.3734H33.8107V17.1837H35.9188H38.027V40.3734ZM31.7025 8.75105V12.9674H19.0535V8.75105H31.7025Z" fill="url(#paint0_linear_123_1032)"/>
<defs>
<linearGradient id="paint0_linear_123_1032" x1="13.8186" y1="26.8805" x2="59.5682" y2="40.7868" gradientUnits="userSpaceOnUse">
<stop stop-color="#091A76"/>
<stop offset="1" stop-color="#B8454D"/>
</linearGradient>
</defs>
</svg>
