<svg width="32" height="32" viewBox="0 0 32 32" fill="none" xmlns="http://www.w3.org/2000/svg">
<path d="M1.33333 1.33334L30.6667 30.6667M20.3733 20.3733C19.9308 21.0201 19.3512 21.5613 18.6757 21.9586C18.0003 22.3559 17.2455 22.5995 16.4653 22.672C15.685 22.7445 14.8983 22.6442 14.1612 22.3781C13.4241 22.1121 12.7547 21.6869 12.2006 21.1328C11.6464 20.5787 11.2212 19.9092 10.9552 19.1721C10.6892 18.435 10.5888 17.6484 10.6613 16.8681C10.7338 16.0878 10.9774 15.3331 11.3747 14.6576C11.772 13.9822 12.3133 13.4025 12.96 12.96M28 28H4C3.29276 28 2.61448 27.7191 2.11438 27.219C1.61429 26.7189 1.33333 26.0406 1.33333 25.3333V10.6667C1.33333 9.95943 1.61429 9.28116 2.11438 8.78106C2.61448 8.28096 3.29276 8.00001 4 8.00001H8L28 28ZM12 4.00001H20L22.6667 8.00001H28C28.7072 8.00001 29.3855 8.28096 29.8856 8.78106C30.3857 9.28116 30.6667 9.95943 30.6667 10.6667V23.12L12 4.00001Z" stroke="#090A0A" stroke-width="1.5" stroke-linecap="round" stroke-linejoin="round"/>
</svg>
