<svg width="32" height="32" viewBox="0 0 32 32" fill="none" xmlns="http://www.w3.org/2000/svg">
<path d="M2.66667 21.4667C3.94786 21.728 5.12393 22.3602 6.04851 23.2848C6.9731 24.2094 7.60538 25.3855 7.86667 26.6667M2.66667 16.0667C5.37439 16.3678 7.89904 17.5814 9.82549 19.5079C11.7519 21.4343 12.9655 23.959 13.2667 26.6667M2.66667 10.6667V8.00001C2.66667 7.29277 2.94762 6.61449 3.44772 6.11439C3.94782 5.61429 4.62609 5.33334 5.33334 5.33334H26.6667C27.3739 5.33334 28.0522 5.61429 28.5523 6.11439C29.0524 6.61449 29.3333 7.29277 29.3333 8.00001V24C29.3333 24.7073 29.0524 25.3855 28.5523 25.8856C28.0522 26.3857 27.3739 26.6667 26.6667 26.6667H18.6667M2.66667 26.6667H2.68001" stroke="#090A0A" stroke-width="1.5" stroke-linecap="round" stroke-linejoin="round"/>
</svg>
