<svg width="32" height="32" viewBox="0 0 32 32" fill="none" xmlns="http://www.w3.org/2000/svg">
<path d="M16 10.6667C13.0545 10.6667 10.6667 13.0545 10.6667 16C10.6667 18.9455 13.0545 21.3333 16 21.3333C18.9455 21.3333 21.3333 18.9455 21.3333 16C21.3333 13.0545 18.9455 10.6667 16 10.6667ZM16 10.6667H28.2267M5.26666 8.07999L11.3867 18.6667M14.5067 29.2533L20.6133 18.6667M29.3333 16C29.3333 23.3638 23.3638 29.3333 16 29.3333C8.63619 29.3333 2.66666 23.3638 2.66666 16C2.66666 8.63619 8.63619 2.66666 16 2.66666C23.3638 2.66666 29.3333 8.63619 29.3333 16Z" stroke="#090A0A" stroke-width="1.5" stroke-linecap="round" stroke-linejoin="round"/>
</svg>
