<svg width="32" height="32" viewBox="0 0 32 32" fill="none" xmlns="http://www.w3.org/2000/svg">
<path d="M21.3333 5.33332H24C24.7073 5.33332 25.3855 5.61427 25.8856 6.11437C26.3857 6.61447 26.6667 7.29275 26.6667 7.99999V26.6667C26.6667 27.3739 26.3857 28.0522 25.8856 28.5523C25.3855 29.0524 24.7073 29.3333 24 29.3333H8.00001C7.29277 29.3333 6.61449 29.0524 6.11439 28.5523C5.61429 28.0522 5.33334 27.3739 5.33334 26.6667V7.99999C5.33334 7.29275 5.61429 6.61447 6.11439 6.11437C6.61449 5.61427 7.29277 5.33332 8.00001 5.33332H10.6667M12 2.66666H20C20.7364 2.66666 21.3333 3.26361 21.3333 3.99999V6.66666C21.3333 7.40304 20.7364 7.99999 20 7.99999H12C11.2636 7.99999 10.6667 7.40304 10.6667 6.66666V3.99999C10.6667 3.26361 11.2636 2.66666 12 2.66666Z" stroke="#090A0A" stroke-width="1.5" stroke-linecap="round" stroke-linejoin="round"/>
</svg>
