<svg width="32" height="32" viewBox="0 0 32 32" fill="none" xmlns="http://www.w3.org/2000/svg">
<path d="M25.3333 22.5333C26.9535 22.2043 28.3937 21.2851 29.3742 19.954C30.3548 18.6229 30.8057 16.9749 30.6396 15.33C30.4734 13.6851 29.702 12.1606 28.4751 11.0525C27.2482 9.94437 25.6532 9.33167 24 9.33333H22.32C21.8782 7.62308 21.0187 6.04931 19.8185 4.75331C18.6183 3.4573 17.1151 2.47963 15.4437 1.90808C13.7724 1.33652 11.9853 1.18897 10.2428 1.47867C8.50037 1.76837 6.85714 2.48626 5.46065 3.56787C4.06417 4.64949 2.95815 6.06097 2.24189 7.67561C1.52563 9.29024 1.22156 11.0575 1.35698 12.8186C1.4924 14.5798 2.06306 16.2798 3.01774 17.7659C3.97242 19.2521 5.28122 20.4779 6.82664 21.3333M17.3333 14.6667L12 22.6667H20L14.6666 30.6667" stroke="#090A0A" stroke-width="1.5" stroke-linecap="round" stroke-linejoin="round"/>
</svg>
