<svg width="32" height="32" viewBox="0 0 32 32" fill="none" xmlns="http://www.w3.org/2000/svg">
<path d="M21.3333 17.3333V28M10.6667 17.3333V28M16 20V30.6667M26.6667 22.1067C28.0683 21.4928 29.2161 20.4154 29.9175 19.0554C30.6188 17.6954 30.8308 16.1355 30.5181 14.6376C30.2054 13.1397 29.3869 11.7949 28.2001 10.8291C27.0132 9.86327 25.5302 9.33513 24 9.33333H22.32C21.8974 7.69669 21.0918 6.18393 19.9698 4.91973C18.8477 3.65553 17.4413 2.6761 15.8664 2.06216C14.2915 1.44822 12.5932 1.21735 10.9116 1.38859C9.22995 1.55982 7.61309 2.12826 6.19427 3.04704C4.77545 3.96582 3.59529 5.20864 2.75108 6.67306C1.90687 8.13747 1.42277 9.78156 1.33869 11.4698C1.25461 13.158 1.57295 14.8421 2.26748 16.3831C2.96201 17.9242 4.01283 19.2781 5.33334 20.3333" stroke="#090A0A" stroke-width="1.5" stroke-linecap="round" stroke-linejoin="round"/>
</svg>
