<svg width="32" height="32" viewBox="0 0 32 32" fill="none" xmlns="http://www.w3.org/2000/svg">
<path d="M24 10.6667H25.3334C26.7478 10.6667 28.1044 11.2286 29.1046 12.2288C30.1048 13.229 30.6667 14.5855 30.6667 16C30.6667 17.4145 30.1048 18.7711 29.1046 19.7712C28.1044 20.7714 26.7478 21.3333 25.3334 21.3333H24M24 10.6667H2.66669V22.6667C2.66669 24.0812 3.22859 25.4377 4.22878 26.4379C5.22898 27.4381 6.58553 28 8.00002 28H18.6667C20.0812 28 21.4377 27.4381 22.4379 26.4379C23.4381 25.4377 24 24.0812 24 22.6667V10.6667ZM8.00002 1.33334V5.33334M13.3334 1.33334V5.33334M18.6667 1.33334V5.33334" stroke="#090A0A" stroke-width="1.5" stroke-linecap="round" stroke-linejoin="round"/>
</svg>
