<svg width="32" height="32" viewBox="0 0 32 32" fill="none" xmlns="http://www.w3.org/2000/svg">
<path d="M6.66667 20H5.33334C4.62609 20 3.94782 19.719 3.44772 19.2189C2.94762 18.7188 2.66667 18.0406 2.66667 17.3333V5.33332C2.66667 4.62608 2.94762 3.9478 3.44772 3.4477C3.94782 2.94761 4.62609 2.66666 5.33334 2.66666H17.3333C18.0406 2.66666 18.7189 2.94761 19.219 3.4477C19.7191 3.9478 20 4.62608 20 5.33332V6.66666M14.6667 12H26.6667C28.1394 12 29.3333 13.1939 29.3333 14.6667V26.6667C29.3333 28.1394 28.1394 29.3333 26.6667 29.3333H14.6667C13.1939 29.3333 12 28.1394 12 26.6667V14.6667C12 13.1939 13.1939 12 14.6667 12Z" stroke="#090A0A" stroke-width="1.5" stroke-linecap="round" stroke-linejoin="round"/>
</svg>
