<svg width="32" height="32" viewBox="0 0 32 32" fill="none" xmlns="http://www.w3.org/2000/svg">
<path d="M12 1.33331V5.33331M20 1.33331V5.33331M12 26.6666V30.6666M20 26.6666V30.6666M26.6667 12H30.6667M26.6667 18.6666H30.6667M1.33334 12H5.33334M1.33334 18.6666H5.33334M8 5.33331H24C25.4728 5.33331 26.6667 6.52722 26.6667 7.99998V24C26.6667 25.4727 25.4728 26.6666 24 26.6666H8C6.52724 26.6666 5.33334 25.4727 5.33334 24V7.99998C5.33334 6.52722 6.52724 5.33331 8 5.33331ZM12 12H20V20H12V12Z" stroke="#090A0A" stroke-width="1.5" stroke-linecap="round" stroke-linejoin="round"/>
</svg>
