<svg width="32" height="32" viewBox="0 0 32 32" fill="none" xmlns="http://www.w3.org/2000/svg">
<path d="M22.6667 4.00002C23.0168 3.64982 23.4326 3.37204 23.8901 3.18251C24.3477 2.99299 24.8381 2.89545 25.3333 2.89545C25.8286 2.89545 26.319 2.99299 26.7765 3.18251C27.2341 3.37204 27.6498 3.64982 28 4.00002C28.3502 4.35021 28.628 4.76595 28.8175 5.22349C29.007 5.68104 29.1046 6.17144 29.1046 6.66668C29.1046 7.16193 29.007 7.65233 28.8175 8.10987C28.628 8.56742 28.3502 8.98316 28 9.33335L9.99999 27.3333L2.66666 29.3333L4.66666 22L22.6667 4.00002Z" stroke="#090A0A" stroke-width="1.5" stroke-linecap="round" stroke-linejoin="round"/>
</svg>
