<svg width="46" height="19" viewBox="0 0 46 19" fill="none" xmlns="http://www.w3.org/2000/svg">
<path d="M14.8456 11.7609V12.5439H10.2736V6.24394H14.7196V7.02694H11.1736V8.96195H14.3326V9.72695H11.1736V11.7609H14.8456ZM20.6154 5.86594V12.5439H19.7874V11.7879C19.5954 12.0519 19.3524 12.2529 19.0584 12.3909C18.7644 12.5289 18.4404 12.5979 18.0864 12.5979C17.6244 12.5979 17.2104 12.4959 16.8444 12.2919C16.4784 12.0879 16.1904 11.8029 15.9804 11.4369C15.7764 11.0649 15.6744 10.6389 15.6744 10.1589C15.6744 9.67895 15.7764 9.25595 15.9804 8.88995C16.1904 8.52395 16.4784 8.23895 16.8444 8.03494C17.2104 7.83095 17.6244 7.72895 18.0864 7.72895C18.4284 7.72895 18.7434 7.79495 19.0314 7.92695C19.3194 8.05295 19.5594 8.24195 19.7514 8.49395V5.86594H20.6154ZM18.1584 11.8419C18.4584 11.8419 18.7314 11.7729 18.9774 11.6349C19.2234 11.4909 19.4154 11.2929 19.5534 11.0409C19.6914 10.7829 19.7604 10.4889 19.7604 10.1589C19.7604 9.82895 19.6914 9.53795 19.5534 9.28595C19.4154 9.02795 19.2234 8.82995 18.9774 8.69195C18.7314 8.55395 18.4584 8.48494 18.1584 8.48494C17.8524 8.48494 17.5764 8.55395 17.3304 8.69195C17.0904 8.82995 16.8984 9.02795 16.7544 9.28595C16.6164 9.53795 16.5474 9.82895 16.5474 10.1589C16.5474 10.4889 16.6164 10.7829 16.7544 11.0409C16.8984 11.2929 17.0904 11.4909 17.3304 11.6349C17.5764 11.7729 17.8524 11.8419 18.1584 11.8419ZM22.2502 7.77395H23.1142V12.5439H22.2502V7.77395ZM22.6822 6.85595C22.5142 6.85595 22.3732 6.80195 22.2592 6.69394C22.1512 6.58594 22.0972 6.45395 22.0972 6.29795C22.0972 6.14195 22.1512 6.00995 22.2592 5.90194C22.3732 5.78795 22.5142 5.73095 22.6822 5.73095C22.8502 5.73095 22.9882 5.78495 23.0962 5.89295C23.2102 5.99494 23.2672 6.12394 23.2672 6.27994C23.2672 6.44195 23.2102 6.57995 23.0962 6.69394C22.9882 6.80195 22.8502 6.85595 22.6822 6.85595ZM27.4458 12.2649C27.3198 12.3729 27.1638 12.4569 26.9778 12.5169C26.7918 12.5709 26.5998 12.5979 26.4018 12.5979C25.9218 12.5979 25.5498 12.4689 25.2858 12.2109C25.0218 11.9529 24.8898 11.5839 24.8898 11.1039V8.48494H24.0798V7.77395H24.8898V6.72995H25.7538V7.77395H27.1218V8.48494H25.7538V11.0679C25.7538 11.3259 25.8168 11.5239 25.9428 11.6619C26.0748 11.7999 26.2608 11.8689 26.5008 11.8689C26.7648 11.8689 26.9898 11.7939 27.1758 11.6439L27.4458 12.2649Z" fill="#724182"/>
<g clip-path="url(#clip0_49_3894)">
<path d="M38.875 5.66906C38.9735 5.57057 39.0904 5.49244 39.2191 5.43914C39.3478 5.38583 39.4857 5.3584 39.625 5.3584C39.7643 5.3584 39.9022 5.38583 40.0309 5.43914C40.1596 5.49244 40.2765 5.57057 40.375 5.66906C40.4735 5.76755 40.5516 5.88448 40.6049 6.01316C40.6582 6.14185 40.6857 6.27977 40.6857 6.41906C40.6857 6.55835 40.6582 6.69627 40.6049 6.82496C40.5516 6.95364 40.4735 7.07057 40.375 7.16906L35.3125 12.2316L33.25 12.7941L33.8125 10.7316L38.875 5.66906Z" stroke="#724182" stroke-width="0.84375" stroke-linecap="round" stroke-linejoin="round"/>
</g>
<defs>
<clipPath id="clip0_49_3894">
<rect width="9" height="9" fill="white" transform="translate(32.5 4.54395)"/>
</clipPath>
</defs>
</svg>
