<svg width="32" height="32" viewBox="0 0 32 32" fill="none" xmlns="http://www.w3.org/2000/svg">
<path d="M16 2.66669H11.3333C10.0956 2.66669 8.90866 3.15835 8.03349 4.03352C7.15832 4.90869 6.66666 6.09568 6.66666 7.33335C6.66666 8.57103 7.15832 9.75802 8.03349 10.6332C8.90866 11.5084 10.0956 12 11.3333 12M16 2.66669V12M16 2.66669H20.6667C21.2795 2.66669 21.8863 2.78739 22.4525 3.02192C23.0187 3.25644 23.5331 3.60018 23.9665 4.03352C24.3998 4.46686 24.7436 4.98131 24.9781 5.5475C25.2126 6.11368 25.3333 6.72052 25.3333 7.33335C25.3333 7.94619 25.2126 8.55302 24.9781 9.11921C24.7436 9.6854 24.3998 10.1998 23.9665 10.6332C23.5331 11.0665 23.0187 11.4103 22.4525 11.6448C21.8863 11.8793 21.2795 12 20.6667 12M16 12H11.3333M16 12H20.6667M16 12V21.3334M11.3333 12C10.0956 12 8.90866 12.4917 8.03349 13.3669C7.15832 14.242 6.66666 15.429 6.66666 16.6667C6.66666 17.9044 7.15832 19.0913 8.03349 19.9665C8.90866 20.8417 10.0956 21.3334 11.3333 21.3334M20.6667 12C20.0538 12 19.447 12.1207 18.8808 12.3552C18.3146 12.5898 17.8002 12.9335 17.3668 13.3669C16.9335 13.8002 16.5897 14.3146 16.3552 14.8808C16.1207 15.447 16 16.0539 16 16.6667C16 17.2795 16.1207 17.8864 16.3552 18.4525C16.5897 19.0187 16.9335 19.5332 17.3668 19.9665C17.8002 20.3999 18.3146 20.7436 18.8808 20.9781C19.447 21.2126 20.0538 21.3334 20.6667 21.3334C21.2795 21.3334 21.8863 21.2126 22.4525 20.9781C23.0187 20.7436 23.5331 20.3999 23.9665 19.9665C24.3998 19.5332 24.7436 19.0187 24.9781 18.4525C25.2126 17.8864 25.3333 17.2795 25.3333 16.6667C25.3333 16.0539 25.2126 15.447 24.9781 14.8808C24.7436 14.3146 24.3998 13.8002 23.9665 13.3669C23.5331 12.9335 23.0187 12.5898 22.4525 12.3552C21.8863 12.1207 21.2795 12 20.6667 12ZM11.3333 21.3334C10.0956 21.3334 8.90866 21.825 8.03349 22.7002C7.15832 23.5754 6.66666 24.7623 6.66666 26C6.66666 27.2377 7.15832 28.4247 8.03349 29.2999C8.90866 30.175 10.0956 30.6667 11.3333 30.6667C12.571 30.6667 13.758 30.175 14.6332 29.2999C15.5083 28.4247 16 27.2377 16 26V21.3334M11.3333 21.3334H16" stroke="#090A0A" stroke-width="1.5" stroke-linecap="round" stroke-linejoin="round"/>
</svg>
