<svg width="32" height="32" viewBox="0 0 32 32" fill="none" xmlns="http://www.w3.org/2000/svg">
<path d="M26.6667 16V29.3334H5.33335V16M16 29.3334V9.33335M16 9.33335H10C9.11597 9.33335 8.26812 8.98216 7.643 8.35704C7.01788 7.73192 6.66669 6.88408 6.66669 6.00002C6.66669 5.11597 7.01788 4.26812 7.643 3.643C8.26812 3.01788 9.11597 2.66669 10 2.66669C14.6667 2.66669 16 9.33335 16 9.33335ZM16 9.33335H22C22.8841 9.33335 23.7319 8.98216 24.357 8.35704C24.9822 7.73192 25.3334 6.88408 25.3334 6.00002C25.3334 5.11597 24.9822 4.26812 24.357 3.643C23.7319 3.01788 22.8841 2.66669 22 2.66669C17.3334 2.66669 16 9.33335 16 9.33335ZM2.66669 9.33335H29.3334V16H2.66669V9.33335Z" stroke="#090A0A" stroke-width="1.5" stroke-linecap="round" stroke-linejoin="round"/>
</svg>
