<svg width="16" height="16" viewBox="0 0 16 16" fill="none" xmlns="http://www.w3.org/2000/svg">
<path d="M14.6666 7.99998C14.6666 11.6819 11.6819 14.6666 7.99998 14.6666M14.6666 7.99998C14.6666 4.31808 11.6819 1.33331 7.99998 1.33331M14.6666 7.99998H1.33331M7.99998 14.6666C4.31808 14.6666 1.33331 11.6819 1.33331 7.99998M7.99998 14.6666C9.6675 12.8411 10.6151 10.472 10.6666 7.99998C10.6151 5.528 9.6675 3.15888 7.99998 1.33331M7.99998 14.6666C6.33246 12.8411 5.38481 10.472 5.33331 7.99998C5.38481 5.528 6.33246 3.15888 7.99998 1.33331M1.33331 7.99998C1.33331 4.31808 4.31808 1.33331 7.99998 1.33331" stroke="#090A0A" stroke-width="1.5" stroke-linecap="round" stroke-linejoin="round"/>
</svg>
