<svg width="21" height="20" viewBox="0 0 21 20" fill="none" xmlns="http://www.w3.org/2000/svg">
<g clip-path="url(#clip0_537_3414)">
<path d="M20.2613 10.2302C20.2613 9.55044 20.2061 8.86699 20.0886 8.19824H10.6562V12.0491H16.0577C15.8335 13.291 15.1134 14.3897 14.0588 15.0878V17.5864H17.2813C19.1736 15.8448 20.2613 13.2726 20.2613 10.2302Z" fill="#4285F4"/>
<path d="M10.6563 20.0008C13.3533 20.0008 15.6278 19.1152 17.285 17.5867L14.0625 15.088C13.1659 15.698 12.0085 16.0434 10.66 16.0434C8.0511 16.0434 5.83908 14.2833 5.0454 11.917H1.72003V14.4928C3.41762 17.8696 6.87528 20.0008 10.6563 20.0008V20.0008Z" fill="#34A853"/>
<path d="M5.0417 11.917C4.62281 10.675 4.62281 9.3302 5.0417 8.08824V5.51245H1.72C0.301666 8.3381 0.301666 11.6671 1.72 14.4928L5.0417 11.917V11.917Z" fill="#FBBC04"/>
<path d="M10.6563 3.95805C12.082 3.936 13.4599 4.47247 14.4924 5.45722L17.3474 2.60218C15.5396 0.904587 13.1402 -0.0287217 10.6563 0.000673888C6.87528 0.000673888 3.41762 2.13185 1.72003 5.51234L5.04173 8.08812C5.83173 5.71811 8.04742 3.95805 10.6563 3.95805V3.95805Z" fill="#EA4335"/>
</g>
<defs>
<clipPath id="clip0_537_3414">
<rect width="20" height="20" fill="white" transform="translate(0.5)"/>
</clipPath>
</defs>
</svg>
