<svg width="32" height="32" viewBox="0 0 32 32" fill="none" xmlns="http://www.w3.org/2000/svg">
<path d="M29.3333 16H2.66666M29.3333 16V24C29.3333 24.7072 29.0524 25.3855 28.5523 25.8856C28.0522 26.3857 27.3739 26.6666 26.6667 26.6666H5.33332C4.62608 26.6666 3.9478 26.3857 3.4477 25.8856C2.94761 25.3855 2.66666 24.7072 2.66666 24V16M29.3333 16L24.7333 6.81331C24.5126 6.36903 24.1722 5.99514 23.7506 5.73369C23.329 5.47223 22.8428 5.33358 22.3467 5.33331H9.65332C9.15721 5.33358 8.67101 5.47223 8.24938 5.73369C7.82776 5.99514 7.48743 6.36903 7.26666 6.81331L2.66666 16M7.99999 21.3333H8.01332M13.3333 21.3333H13.3467" stroke="#090A0A" stroke-width="1.5" stroke-linecap="round" stroke-linejoin="round"/>
</svg>
