<svg width="32" height="32" viewBox="0 0 32 32" fill="none" xmlns="http://www.w3.org/2000/svg">
<path d="M12.12 12C12.4335 11.1089 13.0522 10.3575 13.8666 9.87886C14.681 9.40023 15.6385 9.22527 16.5696 9.38497C17.5006 9.54467 18.3451 10.0287 18.9534 10.7514C19.5618 11.4741 19.8947 12.3887 19.8933 13.3334C19.8933 16 15.8933 17.3334 15.8933 17.3334M16 22.6667H16.0133M29.3333 16C29.3333 23.3638 23.3638 29.3334 16 29.3334C8.6362 29.3334 2.66666 23.3638 2.66666 16C2.66666 8.63622 8.6362 2.66669 16 2.66669C23.3638 2.66669 29.3333 8.63622 29.3333 16Z" stroke="#090A0A" stroke-width="1.5" stroke-linecap="round" stroke-linejoin="round"/>
</svg>
