<svg width="32" height="32" viewBox="0 0 32 32" fill="none" xmlns="http://www.w3.org/2000/svg">
<path d="M12 22.6666H7.99999C7.12452 22.6666 6.25761 22.4942 5.44877 22.1592C4.63993 21.8241 3.90501 21.3331 3.28595 20.714C2.03571 19.4638 1.33333 17.7681 1.33333 16C1.33333 14.2319 2.03571 12.5362 3.28595 11.2859C4.53619 10.0357 6.23188 9.33331 7.99999 9.33331H12M10.6667 16H21.3333M20 9.33331H24C24.8755 9.33331 25.7424 9.50575 26.5512 9.84078C27.3601 10.1758 28.095 10.6669 28.714 11.2859C29.3331 11.905 29.8242 12.6399 30.1592 13.4488C30.4942 14.2576 30.6667 15.1245 30.6667 16C30.6667 16.8755 30.4942 17.7424 30.1592 18.5512C29.8242 19.36 29.3331 20.095 28.714 20.714C28.095 21.3331 27.3601 21.8241 26.5512 22.1592C25.7424 22.4942 24.8755 22.6666 24 22.6666H20V9.33331Z" stroke="#090A0A" stroke-width="1.5" stroke-linecap="round" stroke-linejoin="round"/>
</svg>
