<svg width="32" height="32" viewBox="0 0 32 32" fill="none" xmlns="http://www.w3.org/2000/svg">
<path d="M9.33333 14.6667V9.33335C9.33333 7.56524 10.0357 5.86955 11.286 4.61931C12.5362 3.36907 14.2319 2.66669 16 2.66669C17.7681 2.66669 19.4638 3.36907 20.714 4.61931C21.9643 5.86955 22.6667 7.56524 22.6667 9.33335V14.6667M6.66667 14.6667H25.3333C26.8061 14.6667 28 15.8606 28 17.3334V26.6667C28 28.1394 26.8061 29.3334 25.3333 29.3334H6.66667C5.19391 29.3334 4 28.1394 4 26.6667V17.3334C4 15.8606 5.19391 14.6667 6.66667 14.6667Z" stroke="#090A0A" stroke-width="1.5" stroke-linecap="round" stroke-linejoin="round"/>
</svg>
