<svg width="32" height="32" viewBox="0 0 32 32" fill="none" xmlns="http://www.w3.org/2000/svg">
<path d="M15.4167 16.1666C15.8309 16.1666 16.1667 15.8308 16.1667 15.4166C16.1667 15.0024 15.8309 14.6666 15.4167 14.6666C15.0025 14.6666 14.6667 15.0024 14.6667 15.4166C14.6667 15.8308 15.0025 16.1666 15.4167 16.1666Z" fill="#090A0A"/>
<path d="M24.75 16.1666C25.1642 16.1666 25.5 15.8308 25.5 15.4166C25.5 15.0024 25.1642 14.6666 24.75 14.6666C24.3358 14.6666 24 15.0024 24 15.4166C24 15.8308 24.3358 16.1666 24.75 16.1666Z" fill="#090A0A"/>
<path d="M6.08333 16.1666C6.49755 16.1666 6.83333 15.8308 6.83333 15.4166C6.83333 15.0024 6.49755 14.6666 6.08333 14.6666C5.66912 14.6666 5.33333 15.0024 5.33333 15.4166C5.33333 15.8308 5.66912 16.1666 6.08333 16.1666Z" fill="#090A0A"/>
<path d="M15.4167 16.1666C15.8309 16.1666 16.1667 15.8308 16.1667 15.4166C16.1667 15.0024 15.8309 14.6666 15.4167 14.6666C15.0025 14.6666 14.6667 15.0024 14.6667 15.4166C14.6667 15.8308 15.0025 16.1666 15.4167 16.1666Z" stroke="#090A0A" stroke-width="1.5" stroke-linecap="round" stroke-linejoin="round"/>
<path d="M24.75 16.1666C25.1642 16.1666 25.5 15.8308 25.5 15.4166C25.5 15.0024 25.1642 14.6666 24.75 14.6666C24.3358 14.6666 24 15.0024 24 15.4166C24 15.8308 24.3358 16.1666 24.75 16.1666Z" stroke="#090A0A" stroke-width="1.5" stroke-linecap="round" stroke-linejoin="round"/>
<path d="M6.08333 16.1666C6.49755 16.1666 6.83333 15.8308 6.83333 15.4166C6.83333 15.0024 6.49755 14.6666 6.08333 14.6666C5.66912 14.6666 5.33333 15.0024 5.33333 15.4166C5.33333 15.8308 5.66912 16.1666 6.08333 16.1666Z" stroke="#090A0A" stroke-width="1.5" stroke-linecap="round" stroke-linejoin="round"/>
</svg>
