<svg width="65" height="65" viewBox="0 0 65 65" fill="none" xmlns="http://www.w3.org/2000/svg">
<path fill-rule="evenodd" clip-rule="evenodd" d="M29.945 22.0371C29.945 26.4275 26.4275 29.9715 22.0371 29.9715C17.6468 29.9715 14.1028 26.4275 14.1028 22.0371C14.1028 17.6468 17.6468 14.1028 22.0371 14.1028C26.4275 14.1028 29.945 17.6468 29.945 22.0371ZM51.1033 22.0371C51.1033 26.4275 47.5857 29.9715 43.1954 29.9715C38.8051 29.9715 35.261 26.4275 35.261 22.0371C35.261 17.6468 38.8051 14.1028 43.1954 14.1028C47.5857 14.1028 51.1033 17.6468 51.1033 22.0371ZM22.0371 35.261C15.8748 35.261 3.52368 38.3554 3.52368 44.5178V48.4849C3.52368 49.9396 4.71383 51.1297 6.16846 51.1297H37.9058C39.3605 51.1297 40.5506 49.9396 40.5506 48.4849V44.5178C40.5506 38.3554 28.1995 35.261 22.0371 35.261ZM40.6299 35.3933C41.5556 35.3139 42.4284 35.261 43.1954 35.261C49.3577 35.261 61.7088 38.3554 61.7088 44.5178V48.4849C61.7088 49.9396 60.5187 51.1297 59.064 51.1297H45.3641C45.655 50.3098 45.8401 49.4106 45.8401 48.4849V44.5178C45.8401 40.6299 43.7508 37.6942 40.7357 35.4991C40.7277 35.491 40.7197 35.4806 40.711 35.4692C40.6908 35.443 40.6668 35.4117 40.6299 35.3933Z" fill="url(#paint0_linear_123_1025)"/>
<defs>
<linearGradient id="paint0_linear_123_1025" x1="16.6643" y1="34.7592" x2="73.8555" y2="60.7114" gradientUnits="userSpaceOnUse">
<stop stop-color="#091A76"/>
<stop offset="1" stop-color="#B8454D"/>
</linearGradient>
</defs>
</svg>
