<svg width="32" height="32" viewBox="0 0 32 32" fill="none" xmlns="http://www.w3.org/2000/svg">
<path d="M29.5169 22.8935V26.8935C29.5184 27.2648 29.4424 27.6324 29.2936 27.9726C29.1449 28.3128 28.9267 28.6182 28.653 28.8693C28.3794 29.1203 28.0564 29.3114 27.7046 29.4304C27.3528 29.5494 26.9801 29.5936 26.6103 29.5601C22.5074 29.1143 18.5663 27.7123 15.1036 25.4668C11.882 23.4197 9.15072 20.6884 7.10361 17.4668C4.85024 13.9884 3.44793 10.0281 3.01027 5.9068C2.97695 5.53809 3.02077 5.16648 3.13894 4.81563C3.25711 4.46478 3.44703 4.14238 3.69663 3.86896C3.94622 3.59553 4.25001 3.37708 4.58866 3.22749C4.92731 3.07791 5.29339 3.00048 5.66361 3.00013H9.66361C10.3107 2.99376 10.938 3.2229 11.4286 3.64484C11.9192 4.06678 12.2397 4.65272 12.3303 5.29346C12.4991 6.57355 12.8122 7.83043 13.2636 9.04013C13.443 9.51736 13.4818 10.036 13.3755 10.5346C13.2691 11.0333 13.0221 11.4909 12.6636 11.8535L10.9703 13.5468C12.8683 16.8849 15.6322 19.6487 18.9703 21.5468L20.6636 19.8535C21.0261 19.495 21.4838 19.2479 21.9824 19.1416C22.4811 19.0352 22.9997 19.0741 23.4769 19.2535C24.6866 19.7049 25.9435 20.018 27.2236 20.1868C27.8713 20.2782 28.4628 20.6044 28.8857 21.1035C29.3085 21.6025 29.5332 22.2396 29.5169 22.8935Z" stroke="#090A0A" stroke-width="1.5" stroke-linecap="round" stroke-linejoin="round"/>
</svg>
