<svg width="32" height="32" viewBox="0 0 32 32" fill="none" xmlns="http://www.w3.org/2000/svg">
<path d="M6.91998 17.08C4.67445 13.6174 3.27246 9.67626 2.82665 5.57337C2.79333 5.20466 2.83715 4.83305 2.95531 4.48221C3.07348 4.13136 3.26341 3.80896 3.513 3.53554C3.76259 3.26211 4.06639 3.04365 4.40503 2.89407C4.74368 2.74449 5.10977 2.66706 5.47998 2.66671H9.47998C10.1271 2.66034 10.7544 2.88948 11.245 3.31142C11.7356 3.73336 12.0561 4.3193 12.1466 4.96004C12.3155 6.24013 12.6286 7.49701 13.08 8.70671C13.2594 9.18394 13.2982 9.70259 13.1919 10.2012C13.0855 10.6998 12.8385 11.1575 12.48 11.52L10.7866 13.2134M30.6666 1.33337L1.33331 30.6667M14.24 17.7467C15.5931 19.101 17.1224 20.2671 18.7866 21.2134L20.48 19.52C20.8425 19.1616 21.3002 18.9145 21.7988 18.8082C22.2974 18.7018 22.8161 18.7406 23.2933 18.92C24.503 19.3714 25.7599 19.6845 27.04 19.8534C27.6807 19.9439 28.2667 20.2644 28.6886 20.755C29.1105 21.2457 29.3397 21.873 29.3333 22.52V26.52C29.3348 26.8914 29.2588 27.2589 29.11 27.5992C28.9612 27.9394 28.743 28.2448 28.4694 28.4959C28.1958 28.7469 27.8727 28.938 27.521 29.057C27.1692 29.1759 26.7965 29.2201 26.4266 29.1867C22.3238 28.7409 18.3826 27.3389 14.92 25.0934C13.3137 24.0734 11.8247 22.8796 10.48 21.5334L14.24 17.7467Z" stroke="#090A0A" stroke-width="1.5" stroke-linecap="round" stroke-linejoin="round"/>
</svg>
