<svg width="32" height="32" viewBox="0 0 32 32" fill="none" xmlns="http://www.w3.org/2000/svg">
<path d="M28.28 21.1866C27.4317 23.1926 26.105 24.9602 24.4158 26.335C22.7266 27.7098 20.7263 28.6499 18.5899 29.073C16.4534 29.4961 14.2459 29.3895 12.1602 28.7624C10.0745 28.1352 8.17414 27.0067 6.62533 25.4755C5.07652 23.9443 3.92639 22.057 3.27548 19.9786C2.62458 17.9002 2.49272 15.6939 2.89143 13.5528C3.29015 11.4117 4.2073 9.4008 5.5627 7.696C6.9181 5.9912 8.67048 4.64438 10.6666 3.77329M29.3333 16C29.3333 14.249 28.9884 12.5152 28.3184 10.8975C27.6483 9.27984 26.6662 7.80998 25.4281 6.57187C24.1899 5.33375 22.7201 4.35163 21.1024 3.68157C19.4847 3.0115 17.7509 2.66663 16 2.66663V16H29.3333Z" stroke="#090A0A" stroke-width="1.5" stroke-linecap="round" stroke-linejoin="round"/>
</svg>
