<svg width="32" height="32" viewBox="0 0 32 32" fill="none" xmlns="http://www.w3.org/2000/svg">
<path d="M10.6667 13.3333L16 18.6667L21.3333 13.3333M5.33332 4H26.6667C27.3739 4 28.0522 4.28095 28.5523 4.78105C29.0524 5.28115 29.3333 5.95942 29.3333 6.66667V14.6667C29.3333 18.2029 27.9286 21.5943 25.4281 24.0948C22.9276 26.5952 19.5362 28 16 28C14.249 28 12.5152 27.6551 10.8975 26.9851C9.27987 26.315 7.81001 25.3329 6.5719 24.0948C4.07141 21.5943 2.66666 18.2029 2.66666 14.6667V6.66667C2.66666 5.95942 2.94761 5.28115 3.4477 4.78105C3.9478 4.28095 4.62608 4 5.33332 4Z" stroke="#090A0A" stroke-width="1.5" stroke-linecap="round" stroke-linejoin="round"/>
</svg>
