<svg width="32" height="32" viewBox="0 0 32 32" fill="none" xmlns="http://www.w3.org/2000/svg">
<path d="M8.00002 12V2.66663H24V12M8.00002 24H5.33335C4.62611 24 3.94783 23.719 3.44774 23.2189C2.94764 22.7188 2.66669 22.0405 2.66669 21.3333V14.6666C2.66669 13.9594 2.94764 13.2811 3.44774 12.781C3.94783 12.2809 4.62611 12 5.33335 12H26.6667C27.3739 12 28.0522 12.2809 28.5523 12.781C29.0524 13.2811 29.3334 13.9594 29.3334 14.6666V21.3333C29.3334 22.0405 29.0524 22.7188 28.5523 23.2189C28.0522 23.719 27.3739 24 26.6667 24H24M8.00002 18.6666H24V29.3333H8.00002V18.6666Z" stroke="#090A0A" stroke-width="1.5" stroke-linecap="round" stroke-linejoin="round"/>
</svg>
