<svg width="32" height="32" viewBox="0 0 32 32" fill="none" xmlns="http://www.w3.org/2000/svg">
<path d="M21.6534 10.3467C22.3972 11.0897 22.9872 11.972 23.3898 12.9432C23.7924 13.9144 23.9996 14.9554 23.9996 16.0067C23.9996 17.058 23.7924 18.099 23.3898 19.0702C22.9872 20.0414 22.3972 20.9237 21.6534 21.6667M10.3467 21.6534C9.60288 20.9104 9.0128 20.0281 8.61021 19.0569C8.20762 18.0857 8.00039 17.0447 8.00039 15.9934C8.00039 14.942 8.20762 13.901 8.61021 12.9298C9.0128 11.9587 9.60288 11.0763 10.3467 10.3334M25.4267 6.57336C27.9263 9.07373 29.3305 12.4645 29.3305 16C29.3305 19.5356 27.9263 22.9263 25.4267 25.4267M6.57335 25.4267C4.07374 22.9263 2.66953 19.5356 2.66953 16C2.66953 12.4645 4.07374 9.07373 6.57335 6.57336M18.6667 16C18.6667 17.4728 17.4728 18.6667 16 18.6667C14.5273 18.6667 13.3334 17.4728 13.3334 16C13.3334 14.5273 14.5273 13.3334 16 13.3334C17.4728 13.3334 18.6667 14.5273 18.6667 16Z" stroke="#090A0A" stroke-width="1.5" stroke-linecap="round" stroke-linejoin="round"/>
</svg>
