<svg width="32" height="32" viewBox="0 0 32 32" fill="none" xmlns="http://www.w3.org/2000/svg">
<path d="M30.6667 5.33331V13.3333M30.6667 13.3333H22.6667M30.6667 13.3333L24.4933 7.51998C22.6542 5.67963 20.2667 4.48689 17.6906 4.1215C15.1146 3.75611 12.4896 4.23786 10.2111 5.49416C7.93272 6.75046 6.12433 8.71324 5.05849 11.0867C3.99264 13.4602 3.72708 16.1158 4.30182 18.6534C4.87657 21.1909 6.26048 23.4729 8.24501 25.1555C10.2295 26.8381 12.7072 27.8301 15.3046 27.9821C17.9019 28.134 20.4784 27.4377 22.6455 25.998C24.8127 24.5583 26.4533 22.4532 27.32 20" stroke="#090A0A" stroke-width="1.5" stroke-linecap="round" stroke-linejoin="round"/>
</svg>
