<svg width="32" height="32" viewBox="0 0 32 32" fill="none" xmlns="http://www.w3.org/2000/svg">
<path d="M8.00001 7.99996H8.01334M8.00001 24H8.01334M5.33334 2.66663H26.6667C28.1394 2.66663 29.3333 3.86053 29.3333 5.33329V10.6666C29.3333 12.1394 28.1394 13.3333 26.6667 13.3333H5.33334C3.86058 13.3333 2.66667 12.1394 2.66667 10.6666V5.33329C2.66667 3.86053 3.86058 2.66663 5.33334 2.66663ZM5.33334 18.6666H26.6667C28.1394 18.6666 29.3333 19.8605 29.3333 21.3333V26.6666C29.3333 28.1394 28.1394 29.3333 26.6667 29.3333H5.33334C3.86058 29.3333 2.66667 28.1394 2.66667 26.6666V21.3333C2.66667 19.8605 3.86058 18.6666 5.33334 18.6666Z" stroke="#090A0A" stroke-width="1.5" stroke-linecap="round" stroke-linejoin="round"/>
</svg>
