<svg width="32" height="32" viewBox="0 0 32 32" fill="none" xmlns="http://www.w3.org/2000/svg">
<path d="M1.33331 1.33337H6.66665L10.24 19.1867C10.3619 19.8006 10.6959 20.352 11.1834 20.7444C11.6709 21.1369 12.2809 21.3454 12.9066 21.3334H25.8666C26.4924 21.3454 27.1024 21.1369 27.5899 20.7444C28.0774 20.352 28.4114 19.8006 28.5333 19.1867L30.6666 8.00004H7.99998M13.3333 28C13.3333 28.7364 12.7364 29.3334 12 29.3334C11.2636 29.3334 10.6666 28.7364 10.6666 28C10.6666 27.2637 11.2636 26.6667 12 26.6667C12.7364 26.6667 13.3333 27.2637 13.3333 28ZM28 28C28 28.7364 27.403 29.3334 26.6666 29.3334C25.9303 29.3334 25.3333 28.7364 25.3333 28C25.3333 27.2637 25.9303 26.6667 26.6666 26.6667C27.403 26.6667 28 27.2637 28 28Z" stroke="#090A0A" stroke-width="1.5" stroke-linecap="round" stroke-linejoin="round"/>
</svg>
