<svg width="32" height="32" viewBox="0 0 32 32" fill="none" xmlns="http://www.w3.org/2000/svg">
<path d="M19.3333 13.3333C18.2267 13.3333 17.3333 12.44 17.3333 11.3333V4.66663C17.3333 3.55996 18.2267 2.66663 19.3333 2.66663C20.44 2.66663 21.3333 3.55996 21.3333 4.66663V11.3333C21.3333 12.44 20.44 13.3333 19.3333 13.3333Z" stroke="#090A0A" stroke-width="1.5" stroke-linecap="round" stroke-linejoin="round"/>
<path d="M27.3333 13.3333H25.3333V11.3333C25.3333 10.2266 26.2267 9.33329 27.3333 9.33329C28.44 9.33329 29.3333 10.2266 29.3333 11.3333C29.3333 12.44 28.44 13.3333 27.3333 13.3333Z" stroke="#090A0A" stroke-width="1.5" stroke-linecap="round" stroke-linejoin="round"/>
<path d="M12.6667 18.6666C13.7733 18.6666 14.6667 19.56 14.6667 20.6666V27.3333C14.6667 28.44 13.7733 29.3333 12.6667 29.3333C11.56 29.3333 10.6667 28.44 10.6667 27.3333V20.6666C10.6667 19.56 11.56 18.6666 12.6667 18.6666Z" stroke="#090A0A" stroke-width="1.5" stroke-linecap="round" stroke-linejoin="round"/>
<path d="M4.66666 18.6666H6.66666V20.6666C6.66666 21.7733 5.77332 22.6666 4.66666 22.6666C3.55999 22.6666 2.66666 21.7733 2.66666 20.6666C2.66666 19.56 3.55999 18.6666 4.66666 18.6666Z" stroke="#090A0A" stroke-width="1.5" stroke-linecap="round" stroke-linejoin="round"/>
<path d="M18.6667 19.3333C18.6667 18.2266 19.56 17.3333 20.6667 17.3333H27.3333C28.44 17.3333 29.3333 18.2266 29.3333 19.3333C29.3333 20.44 28.44 21.3333 27.3333 21.3333H20.6667C19.56 21.3333 18.6667 20.44 18.6667 19.3333Z" stroke="#090A0A" stroke-width="1.5" stroke-linecap="round" stroke-linejoin="round"/>
<path d="M20.6667 25.3333H18.6667V27.3333C18.6667 28.44 19.56 29.3333 20.6667 29.3333C21.7733 29.3333 22.6667 28.44 22.6667 27.3333C22.6667 26.2266 21.7733 25.3333 20.6667 25.3333Z" stroke="#090A0A" stroke-width="1.5" stroke-linecap="round" stroke-linejoin="round"/>
<path d="M13.3333 12.6666C13.3333 11.56 12.44 10.6666 11.3333 10.6666H4.66666C3.55999 10.6666 2.66666 11.56 2.66666 12.6666C2.66666 13.7733 3.55999 14.6666 4.66666 14.6666H11.3333C12.44 14.6666 13.3333 13.7733 13.3333 12.6666Z" stroke="#090A0A" stroke-width="1.5" stroke-linecap="round" stroke-linejoin="round"/>
<path d="M11.3333 6.66663H13.3333V4.66663C13.3333 3.55996 12.44 2.66663 11.3333 2.66663C10.2267 2.66663 9.33332 3.55996 9.33332 4.66663C9.33332 5.77329 10.2267 6.66663 11.3333 6.66663Z" stroke="#090A0A" stroke-width="1.5" stroke-linecap="round" stroke-linejoin="round"/>
</svg>
