<svg width="32" height="32" viewBox="0 0 32 32" fill="none" xmlns="http://www.w3.org/2000/svg">
<path d="M16 29.3333C23.3638 29.3333 29.3334 23.3638 29.3334 16C29.3334 8.63616 23.3638 2.66663 16 2.66663C8.63622 2.66663 2.66669 8.63616 2.66669 16C2.66669 23.3638 8.63622 29.3333 16 29.3333Z" stroke="#090A0A" stroke-width="1.5" stroke-linecap="round" stroke-linejoin="round"/>
<path d="M16 24C20.4183 24 24 20.4182 24 16C24 11.5817 20.4183 7.99996 16 7.99996C11.5817 7.99996 8.00002 11.5817 8.00002 16C8.00002 20.4182 11.5817 24 16 24Z" stroke="#090A0A" stroke-width="1.5" stroke-linecap="round" stroke-linejoin="round"/>
<path d="M16 18.6666C17.4728 18.6666 18.6667 17.4727 18.6667 16C18.6667 14.5272 17.4728 13.3333 16 13.3333C14.5273 13.3333 13.3334 14.5272 13.3334 16C13.3334 17.4727 14.5273 18.6666 16 18.6666Z" stroke="#090A0A" stroke-width="1.5" stroke-linecap="round" stroke-linejoin="round"/>
</svg>
