<svg width="32" height="32" viewBox="0 0 32 32" fill="none" xmlns="http://www.w3.org/2000/svg">
<path d="M18.6667 19.68V4.66671C18.6667 3.78265 18.3155 2.93481 17.6904 2.30968C17.0652 1.68456 16.2174 1.33337 15.3333 1.33337C14.4493 1.33337 13.6014 1.68456 12.9763 2.30968C12.3512 2.93481 12 3.78265 12 4.66671V19.68C10.9297 20.3952 10.1178 21.4355 9.6841 22.6475C9.25043 23.8595 9.21803 25.1788 9.59168 26.4106C9.96533 27.6424 10.7252 28.7213 11.7591 29.4881C12.793 30.2549 14.0461 30.6689 15.3333 30.6689C16.6206 30.6689 17.8737 30.2549 18.9076 29.4881C19.9415 28.7213 20.7013 27.6424 21.075 26.4106C21.4486 25.1788 21.4162 23.8595 20.9826 22.6475C20.5489 21.4355 19.737 20.3952 18.6667 19.68Z" stroke="#090A0A" stroke-width="1.5" stroke-linecap="round" stroke-linejoin="round"/>
</svg>
