<svg width="32" height="32" viewBox="0 0 32 32" fill="none" xmlns="http://www.w3.org/2000/svg">
<path d="M22.6667 2.66662H26.2267C26.9813 2.65327 27.7145 2.91747 28.2872 3.40904C28.8599 3.90062 29.2322 4.58537 29.3333 5.33329V14.6666C29.2322 15.4145 28.8599 16.0993 28.2872 16.5909C27.7145 17.0824 26.9813 17.3466 26.2267 17.3333H22.6667M13.3333 20V25.3333C13.3333 26.3942 13.7548 27.4116 14.5049 28.1617C15.2551 28.9119 16.2725 29.3333 17.3333 29.3333L22.6667 17.3333V2.66662H7.62667C6.98356 2.65935 6.3595 2.88475 5.86946 3.30128C5.37942 3.71781 5.05643 4.29741 4.96 4.93329L3.12 16.9333C3.06199 17.3155 3.08777 17.7057 3.19555 18.077C3.30333 18.4482 3.49053 18.7916 3.74419 19.0833C3.99785 19.375 4.3119 19.608 4.66457 19.7663C5.01725 19.9246 5.40013 20.0043 5.78667 20H13.3333Z" stroke="#090A0A" stroke-width="1.5" stroke-linecap="round" stroke-linejoin="round"/>
</svg>
