<svg width="32" height="32" viewBox="0 0 32 32" fill="none" xmlns="http://www.w3.org/2000/svg">
<path d="M9.33334 29.3333H5.33334C4.62609 29.3333 3.94782 29.0523 3.44772 28.5522C2.94762 28.0521 2.66667 27.3739 2.66667 26.6666V17.3333C2.66667 16.626 2.94762 15.9478 3.44772 15.4477C3.94782 14.9476 4.62609 14.6666 5.33334 14.6666H9.33334M18.6667 12V6.66663C18.6667 5.60576 18.2452 4.58834 17.4951 3.8382C16.745 3.08805 15.7275 2.66663 14.6667 2.66663L9.33334 14.6666V29.3333H24.3733C25.0164 29.3406 25.6405 29.1152 26.1305 28.6986C26.6206 28.2821 26.9436 27.7025 27.04 27.0666L28.88 15.0666C28.938 14.6844 28.9122 14.2942 28.8045 13.923C28.6967 13.5517 28.5095 13.2084 28.2558 12.9166C28.0022 12.6249 27.6881 12.3919 27.3354 12.2336C26.9828 12.0753 26.5999 11.9956 26.2133 12H18.6667Z" stroke="#090A0A" stroke-width="1.5" stroke-linecap="round" stroke-linejoin="round"/>
</svg>
