<svg width="32" height="32" viewBox="0 0 32 32" fill="none" xmlns="http://www.w3.org/2000/svg">
<path d="M21.3333 28V25.3333C21.3333 23.9188 20.7714 22.5623 19.7712 21.5621C18.771 20.5619 17.4145 20 16 20H6.66666C5.25217 20 3.89562 20.5619 2.89543 21.5621C1.89523 22.5623 1.33333 23.9188 1.33333 25.3333V28M30.6667 14.6667H22.6667M16.6667 9.33333C16.6667 12.2789 14.2788 14.6667 11.3333 14.6667C8.38781 14.6667 5.99999 12.2789 5.99999 9.33333C5.99999 6.38781 8.38781 4 11.3333 4C14.2788 4 16.6667 6.38781 16.6667 9.33333Z" stroke="#090A0A" stroke-width="1.5" stroke-linecap="round" stroke-linejoin="round"/>
</svg>
