<svg width="32" height="32" viewBox="0 0 32 32" fill="none" xmlns="http://www.w3.org/2000/svg">
<path d="M14.2133 6.66671H18.6666C19.3739 6.66671 20.0522 6.94766 20.5523 7.44776C21.0524 7.94785 21.3333 8.62613 21.3333 9.33337V13.7867L22.6666 15.12L30.6666 9.33337V22.6667M1.33331 1.33337L30.6666 30.6667M21.3333 21.3334V22.6667C21.3333 23.374 21.0524 24.0522 20.5523 24.5523C20.0522 25.0524 19.3739 25.3334 18.6666 25.3334H3.99998C3.29274 25.3334 2.61446 25.0524 2.11436 24.5523C1.61426 24.0522 1.33331 23.374 1.33331 22.6667V9.33337C1.33331 8.62613 1.61426 7.94785 2.11436 7.44776C2.61446 6.94766 3.29274 6.66671 3.99998 6.66671H6.66665L21.3333 21.3334Z" stroke="#090A0A" stroke-width="1.5" stroke-linecap="round" stroke-linejoin="round"/>
</svg>
