<svg width="32" height="32" viewBox="0 0 32 32" fill="none" xmlns="http://www.w3.org/2000/svg">
<path d="M16 12.0001V16.0001L18 18.0001M22.0133 23.1334L21.5467 28.2401C21.4866 28.9049 21.1793 29.5231 20.6856 29.9724C20.1918 30.4217 19.5476 30.6694 18.88 30.6667H13.1067C12.4391 30.6694 11.7948 30.4217 11.3011 29.9724C10.8073 29.5231 10.5001 28.9049 10.44 28.2401L9.97332 23.1334M9.98666 8.86673L10.4533 3.76006C10.5132 3.0975 10.8186 2.48124 11.3095 2.03227C11.8004 1.58329 12.4414 1.33402 13.1067 1.3334H18.9067C19.5742 1.33069 20.2185 1.57846 20.7123 2.02776C21.206 2.47706 21.5132 3.0952 21.5733 3.76006L22.04 8.86673M25.3333 16.0001C25.3333 21.1547 21.1546 25.3334 16 25.3334C10.8453 25.3334 6.66666 21.1547 6.66666 16.0001C6.66666 10.8454 10.8453 6.66673 16 6.66673C21.1546 6.66673 25.3333 10.8454 25.3333 16.0001Z" stroke="#090A0A" stroke-width="1.5" stroke-linecap="round" stroke-linejoin="round"/>
</svg>
