<svg width="32" height="32" viewBox="0 0 32 32" fill="none" xmlns="http://www.w3.org/2000/svg">
<path d="M1.33334 1.33337L30.6667 30.6667M22.2933 14.7467C23.3855 15.2797 24.4067 15.9471 25.3333 16.7334M6.66668 16.7334C8.64279 15.0811 11.0212 13.9817 13.56 13.5467M14.28 6.73337C17.1366 6.5032 20.0102 6.85093 22.7294 7.7558C25.4486 8.66067 27.9576 10.1041 30.1067 12M1.89334 12C3.7429 10.3652 5.86361 9.06567 8.16001 8.16004M11.3733 21.48C12.7269 20.5184 14.3462 20.0017 16.0067 20.0017C17.6671 20.0017 19.2864 20.5184 20.64 21.48M16 26.6667H16.0133" stroke="#090A0A" stroke-width="1.5" stroke-linecap="round" stroke-linejoin="round"/>
</svg>
