<svg width="55" height="54" viewBox="0 0 55 54" fill="none" xmlns="http://www.w3.org/2000/svg">
<path d="M27.4395 4.9248C16.3882 4.9248 7.43118 13.8819 7.43118 24.9331C7.43118 35.9844 16.3882 44.9415 27.4395 44.9415C38.4908 44.9415 47.4479 35.9844 47.4479 24.9331C47.4479 13.8819 38.4908 4.9248 27.4395 4.9248ZM31.8858 9.3711C31.8858 11.5943 30.7742 13.8174 28.5511 13.8174C26.328 13.8174 25.2164 16.0405 25.2164 18.2637V24.9331C25.2164 24.9331 27.4395 24.9331 27.4395 18.2637C27.4395 17.6741 27.6737 17.1086 28.0907 16.6917C28.5076 16.2748 29.0731 16.0406 29.6627 16.0406C30.2523 16.0406 30.8178 16.2748 31.2347 16.6917C31.6516 17.1086 31.8858 17.6741 31.8858 18.2637V24.9331C31.4461 24.9331 31.0163 25.0635 30.6507 25.3078C30.2851 25.5521 30.0002 25.8993 29.8319 26.3055C29.6636 26.7118 29.6196 27.1588 29.7054 27.59C29.7912 28.0213 30.0029 28.4174 30.3138 28.7283C30.6247 29.0392 31.0209 29.2509 31.4521 29.3367C31.8834 29.4225 32.3304 29.3785 32.7366 29.2102C33.1428 29.042 33.49 28.757 33.7343 28.3914C33.9786 28.0258 34.109 27.596 34.109 27.1563H36.3321V22.71L38.5553 24.9331L36.3321 27.1563C36.3321 33.8257 36.3321 33.8257 31.8858 36.0489C31.8858 33.8257 29.6627 33.8257 25.2164 33.8257V29.3794L20.7701 24.9331V20.4868C18.5469 20.4868 18.5469 22.71 18.5469 22.71L17.2997 21.4628L11.9864 16.1495C12.231 15.7226 12.4866 15.3002 12.7645 14.8956L13.9272 13.3883C15.5928 11.4312 17.6639 9.8595 19.997 8.78199C22.3302 7.70448 24.8696 7.14693 27.4395 7.14795C28.9402 7.15492 30.434 7.35061 31.8858 7.73042V9.3711Z" fill="url(#paint0_linear_123_1037)"/>
<defs>
<linearGradient id="paint0_linear_123_1037" x1="16.4686" y1="27.2491" x2="60.2502" y2="39.8919" gradientUnits="userSpaceOnUse">
<stop stop-color="#091A76"/>
<stop offset="1" stop-color="#B8454D"/>
</linearGradient>
</defs>
</svg>
