<svg width="32" height="32" viewBox="0 0 32 32" fill="none" xmlns="http://www.w3.org/2000/svg">
<path d="M30.0533 8.56004C29.8949 7.92725 29.5724 7.34747 29.1182 6.87925C28.664 6.41103 28.0943 6.07095 27.4667 5.89337C25.1733 5.33337 16 5.33337 16 5.33337C16 5.33337 6.82666 5.33337 4.53333 5.94671C3.90566 6.12429 3.33596 6.46436 2.88179 6.93258C2.42762 7.4008 2.10505 7.98059 1.94666 8.61337C1.52695 10.9408 1.32164 13.3018 1.33333 15.6667C1.31837 18.0494 1.52368 20.4284 1.94666 22.7734C2.12127 23.3865 2.45107 23.9442 2.90419 24.3927C3.3573 24.8411 3.91842 25.1651 4.53333 25.3334C6.82666 25.9467 16 25.9467 16 25.9467C16 25.9467 25.1733 25.9467 27.4667 25.3334C28.0943 25.1558 28.664 24.8157 29.1182 24.3475C29.5724 23.8793 29.8949 23.2995 30.0533 22.6667C30.4698 20.3568 30.6751 18.0138 30.6667 15.6667C30.6816 13.284 30.4763 10.905 30.0533 8.56004Z" stroke="#090A0A" stroke-width="1.5" stroke-linecap="round" stroke-linejoin="round"/>
<path d="M13 20.0267L20.6667 15.6667L13 11.3067V20.0267Z" stroke="#090A0A" stroke-width="1.5" stroke-linecap="round" stroke-linejoin="round"/>
</svg>
